#!OML:ASF G:\JayActor3\Patient Classification 1\Patient 1\Session 6\male.ASF
:FULLY-SPECIFIED
:DEGREES
3532
root -4.90224 16.6997 -5.55069 908.45 -87.8129 -898.226
lowerback 6.43697 -2.05364 -2.68914
upperback 5.72274 -3.01804 -1.10528
thorax 2.38098 -1.65523 0.487452
lowerneck 7.28913 -3.35315 -4.96364
upperneck 20.8917 -5.4319 -1.98898
head 5.22857 -3.48741 0.0445199
rclavicle 0 -1.11319e-014
rhumerus -38.7723 -17.7007 -70.9314
rradius 26.5688
rwrist 1.11832
rhand -14.7973 -5.14028
rfingers 7.12502
rthumb 11.3603 -34.8126
lclavicle 0 -1.11319e-014
lhumerus -2.79703 -6.15954 79.374
lradius 42.186
lwrist 30.4193
lhand -14.012 3.51514
lfingers 7.12502
lthumb 12.1175 33.1442
rfemur -29.9214 4.74168 12.8152
rtibia 32.9476
rfoot -16.4454 -21.7033
rtoes 3.66274
lfemur 5.41978 4.98262 -14.0107
ltibia -9.54166e-015
lfoot -7.13872 13.1252
ltoes -9.08512
3533
root -4.97083 16.6983 -5.57416 907.966 -87.874 -897.919
lowerback 6.58495 -1.99348 -2.31758
upperback 5.75348 -2.92914 -0.992034
thorax 2.31442 -1.60127 0.399391
lowerneck 7.19323 -3.46334 -4.79997
upperneck 20.9745 -5.55071 -2.11539
head 5.26325 -3.54053 -0.0285142
rclavicle -1.39149e-014 -3.49861e-014
rhumerus -38.4676 -17.5944 -70.9878
rradius 26.3997
rwrist 1.14773
rhand -15.3511 -5.24787
rfingers 7.12502
rthumb 10.8261 -34.9488
lclavicle -1.39149e-014 -3.49861e-014
lhumerus -3.52267 -5.26717 80.0374
lradius 40.7034
lwrist 29.0094
lhand -14.1163 3.48608
lfingers 7.12502
lthumb 12.017 33.1211
rfemur -29.7669 4.4979 12.9644
rtibia 33.4117
rfoot -16.1656 -21.4458
rtoes 2.61504
lfemur 5.85301 5.04732 -13.8485
ltibia 1.90833e-014
lfoot -7.12116 12.9259
ltoes -9.09942
3534
root -5.03711 16.7013 -5.59393 904.671 -87.8759 -894.77
lowerback 6.74388 -1.92781 -1.85944
upperback 5.7822 -2.82844 -0.841557
thorax 2.23805 -1.53936 0.300796
lowerneck 7.11984 -3.58103 -4.61264
upperneck 20.9772 -5.67815 -2.2326
head 5.26816 -3.59251 -0.100721
rclavicle -4.47266e-014 1.35174e-014
rhumerus -38.0789 -17.4793 -71.0405
rradius 26.22
rwrist 1.29171
rhand -15.8571 -5.36243
rfingers 7.12502
rthumb 10.338 -35.0883
lclavicle -4.47266e-014 1.35174e-014
lhumerus -4.2908 -4.19278 80.7026
lradius 39.1908
lwrist 27.7372
lhand -14.4935 3.47829
lfingers 7.12502
lthumb 11.6533 33.1342
rfemur -29.6039 4.3755 13.1937
rtibia 33.7439
rfoot -15.8452 -21.3056
rtoes 1.60636
lfemur 6.24923 5.1839 -13.615
ltibia -3.18055e-015
lfoot -7.01628 12.8198
ltoes -9.07132
3535
root -5.10201 16.7079 -5.61054 900.51 -87.84 -890.716
lowerback 6.8919 -1.86578 -1.38053
upperback 5.80455 -2.72987 -0.673684
thorax 2.16251 -1.47829 0.207578
lowerneck 7.11118 -3.70833 -4.40114
upperneck 20.8663 -5.82084 -2.32765
head 5.22635 -3.64503 -0.166341
rclavicle 3.10104e-014 7.95139e-016
rhumerus -37.63 -17.3878 -71.0754
rradius 26.0545
rwrist 1.56864
rhand -16.2745 -5.46653
rfingers 7.12502
rthumb 9.9353 -35.2121
lclavicle 3.10104e-014 7.95139e-016
lhumerus -5.09622 -2.96848 81.341
lradius 37.6466
lwrist 26.6502
lhand -15.1336 3.50009
lfingers 7.12502
lthumb 11.0359 33.19
rfemur -29.4118 4.33566 13.4395
rtibia 33.9524
rfoot -15.5869 -21.2195
rtoes 0.848454
lfemur 6.59291 5.35621 -13.3794
ltibia 2.54444e-014
lfoot -6.81358 12.8086
ltoes -9.07778
3536
root -5.16695 16.7177 -5.62599 897.621 -87.8008 -887.876
lowerback 6.9832 -1.81202 -0.96853
upperback 5.81618 -2.64257 -0.510803
thorax 2.1116 -1.42481 0.14446
lowerneck 7.16712 -3.84919 -4.16771
upperneck 20.6536 -5.98581 -2.38995
head 5.1422 -3.70178 -0.221823
rclavicle 5.76476e-015 -1.55052e-014
rhumerus -37.1526 -17.3407 -71.0925
rradius 25.9422
rwrist 1.97152
rhand -16.5662 -5.55487
rfingers 7.12502
rthumb 9.65395 -35.3137
lclavicle 5.76476e-015 -1.55052e-014
lhumerus -5.93105 -1.63932 81.9282
lradius 36.0754
lwrist 25.789
lhand -15.9971 3.52229
lfingers 7.12502
lthumb 10.203 33.2549
rfemur -29.215 4.28959 13.6392
rtibia 34.0682
rfoot -15.3938 -21.1494
rtoes 0.286883
lfemur 6.86086 5.53056 -13.2139
ltibia 1.90833e-014
lfoot -6.52022 12.8668
ltoes -9.13201
3537
root -5.23296 16.7311 -5.64274 897.229 -87.7862 -887.452
lowerback 6.97565 -1.76667 -0.690486
upperback 5.81045 -2.56965 -0.368304
thorax 2.10336 -1.38187 0.13212
lowerneck 7.27782 -4.0004 -3.92307
upperneck 20.3691 -6.17098 -2.40729
head 5.02767 -3.76336 -0.262205
rclavicle -7.95139e-016 6.75868e-015
rhumerus -36.6746 -17.3388 -71.1055
rradius 25.9205
rwrist 2.43883
rhand -16.7298 -5.63223
rfingers 7.12502
rthumb 9.4961 -35.3983
lclavicle -7.95139e-016 6.75868e-015
lhumerus -6.78767 -0.227163 82.4409
lradius 34.4791
lwrist 25.1391
lhand -17.0008 3.55129
lfingers 7.12502
lthumb 9.23458 33.3291
rfemur -29.0582 4.19814 13.7487
rtibia 34.1221
rfoot -15.2341 -21.0958
rtoes -0.162986
lfemur 7.02851 5.6915 -13.16
ltibia 2.54444e-014
lfoot -6.14473 12.9595
ltoes -9.24086
3538
root -5.30037 16.7488 -5.66337 899.826 -87.8049 -889.929
lowerback 6.85352 -1.72879 -0.584381
upperback 5.7804 -2.51179 -0.252545
thorax 2.13982 -1.35047 0.185243
lowerneck 7.41252 -4.15698 -3.68248
upperneck 20.0659 -6.37023 -2.37813
head 4.90521 -3.82997 -0.28625
rclavicle -1.2921e-014 -1.59028e-014
rhumerus -36.2193 -17.3509 -71.141
rradius 26.0177
rwrist 2.87872
rhand -16.7886 -5.69654
rfingers 7.12502
rthumb 9.43933 -35.4651
lclavicle -1.2921e-014 -1.59028e-014
lhumerus -7.66809 1.25334 82.8587
lradius 32.8621
lwrist 24.6761
lhand -18.0652 3.56593
lfingers 7.12502
lthumb 8.20739 33.3865
rfemur -28.9653 4.12321 13.7394
rtibia 34.1371
rfoot -15.1545 -21.1008
rtoes -0.45166
lfemur 7.08473 5.8332 -13.2221
ltibia 3.18055e-015
lfoot -5.68061 13.0467
ltoes -9.46098
3539
root -5.37 16.7701 -5.68842 904.736 -87.8376 -894.646
lowerback 6.62499 -1.69919 -0.609401
upperback 5.72933 -2.46827 -0.162623
thorax 2.21783 -1.32901 0.282421
lowerneck 7.54325 -4.31015 -3.45019
upperneck 19.7859 -6.56976 -2.31675
head 4.79212 -3.89746 -0.299119
rclavicle 6.16232e-015 1.98785e-015
rhumerus -35.801 -17.3454 -71.2247
rradius 26.2524
rwrist 3.20546
rhand -16.7681 -5.75162
rfingers 7.12502
rthumb 9.45911 -35.5193
lclavicle 6.16232e-015 1.98785e-015
lhumerus -8.57938 2.80815 83.1618
lradius 31.2377
lwrist 24.3288
lhand -19.1027 3.58256
lfingers 7.12502
lthumb 7.20598 33.4399
rfemur -28.9132 4.13882 13.6354
rtibia 34.1211
rfoot -15.1873 -21.2062
rtoes -0.586866
lfemur 7.05833 5.95929 -13.3534
ltibia -2.54444e-014
lfoot -5.14757 13.0933
ltoes -9.72116
3540
root -5.44118 16.7937 -5.7172 911.304 -87.8544 -900.966
lowerback 6.32459 -1.67864 -0.716627
upperback 5.65345 -2.43757 -0.100425
thorax 2.31222 -1.31523 0.395764
lowerneck 7.92738 -4.44627 -3.25216
upperneck 18.9592 -6.77754 -2.1688
head 5.0242 -3.95975 -0.337017
rclavicle 1.86858e-014 1.53064e-014
rhumerus -35.4316 -17.2895 -71.3784
rradius 26.6261
rwrist 3.34723
rhand -16.7119 -5.79332
rfingers 7.12502
rthumb 9.51329 -35.5586
lclavicle 1.86858e-014 1.53064e-014
lhumerus -9.53214 4.44788 83.3296
lradius 29.6166
lwrist 24.0332
lhand -20.0174 3.65106
lfingers 7.12502
lthumb 6.32305 33.5367
rfemur -28.8845 4.31889 13.4514
rtibia 34.0766
rfoot -15.3769 -21.4341
rtoes -0.507071
lfemur 6.97314 6.0803 -13.5172
ltibia 1.27222e-014
lfoot -4.57229 13.0706
ltoes -9.97354
3541
root -5.51367 16.8179 -5.74812 918.95 -87.8382 -908.356
lowerback 6.00993 -1.66698 -0.862788
upperback 5.55847 -2.41819 -0.0694724
thorax 2.39522 -1.3073 0.499318
lowerneck 8.01383 -4.57705 -3.04645
upperneck 18.8003 -6.95221 -2.07769
head 4.94285 -4.02184 -0.33612
rclavicle -3.97569e-016 4.77083e-015
rhumerus -35.1234 -17.1607 -71.6097
rradius 27.1358
rwrist 3.23981
rhand -16.6581 -5.81693
rfingers 7.12502
rthumb 9.5652 -35.5798
lclavicle -3.97569e-016 4.77083e-015
lhumerus -10.5401 6.17567 83.3495
lradius 28.0141
lwrist 23.713
lhand -20.7432 3.77183
lfingers 7.12502
lthumb 5.62232 33.6772
rfemur -28.8262 4.68379 13.1956
rtibia 33.9995
rfoot -15.7314 -21.7821
rtoes -0.228264
lfemur 6.88205 6.19366 -13.6956
ltibia -2.22639e-014
lfoot -3.96579 12.9679
ltoes -10.2169
3542
root -5.58706 16.841 -5.77904 927.034 -87.7798 -916.219
lowerback 5.73557 -1.66397 -1.01275
upperback 5.45476 -2.40976 -0.0697136
thorax 2.44595 -1.30429 0.575106
lowerneck 8.07818 -4.69892 -2.8477
upperneck 18.6837 -7.11498 -1.99564
head 4.88198 -4.08088 -0.338816
rclavicle -4.17448e-014 1.59028e-014
rhumerus -34.8727 -16.9473 -71.9144
rradius 27.7712
rwrist 2.86835
rhand -16.6202 -5.8289
rfingers 7.12502
rthumb 9.60181 -35.5901
lclavicle -4.17448e-014 1.59028e-014
lhumerus -11.6074 7.98986 83.2163
lradius 26.4377
lwrist 23.326
lhand -21.2624 3.90191
lfingers 7.12502
lthumb 5.12094 33.82
rfemur -28.6962 5.16498 12.8888
rtibia 33.8914
rfoot -16.2096 -22.1888
rtoes 0.186772
lfemur 6.83485 6.29489 -13.8784
ltibia -2.8625e-014
lfoot -3.35061 12.7834
ltoes -10.4142
3543
root -5.66121 16.862 -5.80831 934.469 -87.685 -923.488
lowerback 5.5235 -1.66691 -1.12441
upperback 5.34892 -2.40836 -0.089628
thorax 2.45767 -1.3033 0.611858
lowerneck 8.14074 -4.81441 -2.65764
upperneck 18.5817 -7.2677 -1.93254
head 4.82657 -4.13737 -0.346631
rclavicle -1.2921e-015 -2.78299e-015
rhumerus -34.672 -16.6423 -72.2773
rradius 28.5151
rwrist 2.22522
rhand -16.6223 -5.82394
rfingers 7.12502
rthumb 9.59975 -35.5852
lclavicle -1.2921e-015 -2.78299e-015
lhumerus -12.7362 9.87286 82.9318
lradius 24.903
lwrist 22.8523
lhand -21.5614 4.06581
lfingers 7.12502
lthumb 4.83228 33.9907
rfemur -28.4818 5.63564 12.5865
rtibia 33.7552
rfoot -16.7192 -22.5531
rtoes 0.617031
lfemur 6.85223 6.38715 -14.0385
ltibia -1.27222e-014
lfoot -2.74238 12.5345
ltoes -10.5863
3544
root -5.73593 16.8806 -5.83565 941.13 -87.5568 -930.037
lowerback 5.36945 -1.67302 -1.21329
upperback 5.24612 -2.41152 -0.11792
thorax 2.43917 -1.30391 0.62945
lowerneck 8.20607 -4.9263 -2.48304
upperneck 18.4754 -7.41215 -1.89782
head 4.76835 -4.19232 -0.360841
rclavicle -3.61788e-014 2.18663e-015
rhumerus -34.5133 -16.2432 -72.6757
rradius 29.3613
rwrist 1.34039
rhand -16.6553 -5.79802
rfingers 7.12502
rthumb 9.56792 -35.5608
lclavicle -3.61788e-014 2.18663e-015
lhumerus -13.9234 11.8097 82.5057
lradius 23.417
lwrist 22.2822
lhand -21.6443 4.22108
lfingers 7.12502
lthumb 4.75227 34.1478
rfemur -28.1902 6.00979 12.3033
rtibia 33.595
rfoot -17.1888 -22.8166
rtoes 0.966521
lfemur 6.93332 6.47297 -14.1817
ltibia -3.18055e-015
lfoot -2.14564 12.2336
ltoes -10.7579
3545
root -5.81088 16.8967 -5.86093 946.759 -87.4104 -935.596
lowerback 5.25936 -1.68208 -1.28003
upperback 5.14732 -2.4191 -0.140191
thorax 2.39988 -1.30634 0.642472
lowerneck 8.27859 -5.03291 -2.33837
upperneck 18.3496 -7.54729 -1.88105
head 4.70183 -4.24517 -0.374832
rclavicle 6.65929e-015 1.16289e-014
rhumerus -34.389 -15.7571 -73.089
rradius 30.3035
rwrist 0.253958
rhand -16.7071 -5.7592
rfingers 7.12502
rthumb 9.51799 -35.5242
lclavicle 6.65929e-015 1.16289e-014
lhumerus -15.1654 13.7837 81.9467
lradius 21.9827
lwrist 21.6023
lhand -21.5234 4.37783
lfingers 7.12502
lthumb 4.86897 34.3019
rfemur -27.841 6.24566 12.0607
rtibia 33.4124
rfoot -17.5749 -22.9559
rtoes 1.20499
lfemur 7.06093 6.55511 -14.2985
ltibia 6.36111e-015
lfoot -1.56239 11.8974
ltoes -10.939
3546
root -5.88497 16.9112 -5.88418 951.072 -87.2737 -939.868
lowerback 5.19354 -1.69474 -1.30573
upperback 5.04916 -2.43151 -0.142565
thorax 2.33592 -1.31034 0.654735
lowerneck 8.36684 -5.13252 -2.23217
upperneck 18.1905 -7.67148 -1.87689
head 4.62089 -4.2951 -0.384597
rclavicle -3.28989e-014 -8.54774e-015
rhumerus -34.2986 -15.1969 -73.5003
rradius 31.3353
rwrist -0.975294
rhand -16.7595 -5.7119
rfingers 7.12502
rthumb 9.46737 -35.4792
lclavicle -3.28989e-014 -8.54774e-015
lhumerus -16.4571 15.7976 81.2539
lradius 20.5942
lwrist 20.7691
lhand -21.2007 4.58992
lfingers 7.12502
lthumb 5.18056 34.5066
rfemur -27.455 6.39855 11.8772
rtibia 33.2068
rfoot -17.8981 -23.0182
rtoes 1.36602
lfemur 7.21554 6.6382 -14.3618
ltibia -3.18055e-015
lfoot -0.973367 11.5338
ltoes -11.216
